<svg data-v-423bf9ae="" xmlns="http://www.w3.org/2000/svg" viewBox="0 0 578 90" class="iconLeft"><!----><!----><!----><g data-v-423bf9ae="" id="f042e05c-01ce-4b8f-85d1-e6958d916482" fill="#DAA5DE" transform="matrix(6.153846153846154,0,0,6.153846153846154,111.04614740610123,-7.092308631310097)"><path d="M7.10 13.15L8.71 13.15L5.02 3.82L3.51 3.82L-0.17 13.15L1.43 13.15L2.32 10.75L6.21 10.73ZM2.76 9.57L4.27 5.45L5.78 9.57ZM12.43 13.34C13.88 13.34 15.60 12.59 15.60 10.65C15.60 9.17 14.45 8.31 13.04 7.82C11.64 7.31 11.11 6.91 11.11 6.14C11.11 5.40 11.77 4.87 12.60 4.87C13.33 4.87 13.85 5.13 14.48 5.70L15.44 4.71C14.77 4.08 13.93 3.59 12.60 3.59C11.01 3.59 9.58 4.64 9.58 6.15C9.58 7.86 10.75 8.46 12.29 9.01C13.24 9.35 14.03 9.79 14.03 10.70C14.03 11.61 13.15 12.06 12.34 12.06C11.43 12.06 10.69 11.72 10.02 10.89L8.97 11.90C9.80 12.83 10.88 13.34 12.43 13.34ZM20.77 3.82L17.50 3.82L17.50 13.15L18.99 13.15L18.99 9.45L20.77 9.44C22.25 9.42 23.77 8.44 23.77 6.64C23.77 4.81 22.25 3.82 20.77 3.82ZM20.21 8.30L18.99 8.27L18.99 4.99L20.21 4.97C21.52 4.96 22.22 5.59 22.22 6.64C22.22 7.70 21.52 8.31 20.21 8.30ZM26.86 3.82L25.38 3.82L25.38 13.15L26.86 13.15ZM34.30 13.15L36.11 13.15L33.03 9.07C34.26 8.79 35.34 7.95 35.34 6.52C35.34 4.86 33.92 3.82 32.19 3.82L29.21 3.82L29.21 13.15L30.70 13.15L30.70 9.17L31.46 9.17ZM30.70 5.00L31.78 5.00C33.10 5.00 33.79 5.57 33.79 6.53C33.79 7.50 33.10 8.01 31.89 8.01L30.70 8.01ZM42.85 5.07L42.85 3.82L37.16 3.82L37.16 13.15L42.85 13.15L42.85 11.90L38.65 11.90L38.65 9.07L42.12 9.07L42.12 7.90L38.65 7.90L38.65 5.07ZM53.19 8.06L53.19 9.23L55.72 9.23C55.66 10.97 54.43 12.02 52.76 12.02C50.71 12.02 49.44 10.37 49.44 8.44C49.44 6.50 50.72 4.93 52.84 4.91C53.93 4.91 54.66 5.34 54.98 5.60L55.78 4.46C55.36 4.11 54.28 3.59 52.85 3.59C49.83 3.59 47.89 5.75 47.89 8.44C47.89 11.17 49.82 13.34 52.79 13.34C55.69 13.34 57.24 11.21 57.24 8.90L57.24 8.06ZM65.49 3.82L63.77 3.82L61.44 7.42L59.11 3.82L57.39 3.82L60.70 8.82L60.70 13.15L62.18 13.15L62.18 8.84ZM74.48 3.82L71.04 8.65L67.61 3.82L66.28 3.82L66.28 13.15L67.75 13.15L67.75 6.31L71.05 10.76L74.33 6.31L74.33 13.15L75.80 13.15L75.80 3.82Z"></path></g><!----><g data-v-423bf9ae="" id="c3a956f6-1372-4393-aca1-16f2e2bbf5a6" transform="matrix(2.8125,0,0,2.8125,0,0)" stroke="none" fill="#DAA5DE"><path d="M0 16.024L15.976 32 32 15.976 16.024 0 0 16.024zm15.989 7.323l-7.336-7.336 14.694-.022-7.358 7.358z"></path></g><!----></svg>